<svg width="242" height="39" viewBox="0 0 242 39" fill="none" xmlns="http://www.w3.org/2000/svg">
<path d="M44.0072 28H39.5526L45.3385 10.8517H50.8565L56.6423 28H52.1878L48.1603 15.1722H48.0263L44.0072 28ZM43.4127 21.2512H52.7237V24.3995H43.4127V21.2512ZM64.8272 28H58.4886V10.8517H64.8188C66.566 10.8517 68.0704 11.195 69.3319 11.8816C70.5991 12.5626 71.576 13.5451 72.2626 14.8289C72.9492 16.1073 73.2925 17.6368 73.2925 19.4175C73.2925 21.2037 72.9492 22.7388 72.2626 24.0227C71.5815 25.3066 70.6075 26.2919 69.3403 26.9785C68.0732 27.6595 66.5688 28 64.8272 28ZM62.6334 24.4665H64.6681C65.6282 24.4665 66.4404 24.3046 67.1047 23.9809C67.7745 23.6515 68.2797 23.1184 68.6202 22.3816C68.9663 21.6392 69.1394 20.6511 69.1394 19.4175C69.1394 18.1838 68.9663 17.2014 68.6202 16.4701C68.2741 15.7333 67.7634 15.203 67.0879 14.8792C66.4181 14.5498 65.5919 14.3852 64.6095 14.3852H62.6334V24.4665ZM82.0508 28H75.7123V10.8517H82.0425C83.7897 10.8517 85.2941 11.195 86.5556 11.8816C87.8228 12.5626 88.7996 13.5451 89.4862 14.8289C90.1728 16.1073 90.5161 17.6368 90.5161 19.4175C90.5161 21.2037 90.1728 22.7388 89.4862 24.0227C88.8052 25.3066 87.8311 26.2919 86.564 26.9785C85.2969 27.6595 83.7925 28 82.0508 28ZM79.8571 24.4665H81.8917C82.8519 24.4665 83.6641 24.3046 84.3284 23.9809C84.9982 23.6515 85.5034 23.1184 85.8439 22.3816C86.19 21.6392 86.363 20.6511 86.363 19.4175C86.363 18.1838 86.19 17.2014 85.8439 16.4701C85.4978 15.7333 84.987 15.203 84.3116 14.8792C83.6417 14.5498 82.8156 14.3852 81.8331 14.3852H79.8571V24.4665ZM95.6322 28H91.1776L96.9635 10.8517H102.481L108.267 28H103.813L99.7853 15.1722H99.6513L95.6322 28ZM95.0377 21.2512H104.349V24.3995H95.0377V21.2512ZM110.114 28V10.8517H117.197C118.481 10.8517 119.589 11.0833 120.522 11.5467C121.459 12.0044 122.182 12.6631 122.69 13.5227C123.198 14.3768 123.452 15.39 123.452 16.5622C123.452 17.7512 123.193 18.7616 122.673 19.5933C122.154 20.4195 121.417 21.0502 120.463 21.4856C119.508 21.9155 118.378 22.1304 117.072 22.1304H112.592V18.8648H116.301C116.927 18.8648 117.449 18.7839 117.867 18.622C118.291 18.4545 118.612 18.2033 118.83 17.8684C119.048 17.5279 119.157 17.0925 119.157 16.5622C119.157 16.0319 119.048 15.5937 118.83 15.2476C118.612 14.8959 118.291 14.6336 117.867 14.4605C117.443 14.2819 116.921 14.1926 116.301 14.1926H114.258V28H110.114ZM119.768 20.1627L124.038 28H119.517L115.33 20.1627H119.768ZM125.725 28V10.8517H129.87V18.1029H130.096L135.765 10.8517H140.647L134.568 18.5048L140.755 28H135.798L131.528 21.2596L129.87 23.3529V28H125.725ZM146.786 14.2177V10.8517H161.28V14.2177H156.08V28H151.994V14.2177H146.786ZM163.304 28V10.8517H170.388C171.672 10.8517 172.78 11.0833 173.712 11.5467C174.65 12.0044 175.373 12.6631 175.881 13.5227C176.389 14.3768 176.643 15.39 176.643 16.5622C176.643 17.7512 176.383 18.7616 175.864 19.5933C175.345 20.4195 174.608 21.0502 173.654 21.4856C172.699 21.9155 171.569 22.1304 170.263 22.1304H165.783V18.8648H169.492C170.117 18.8648 170.639 18.7839 171.058 18.622C171.482 18.4545 171.803 18.2033 172.021 17.8684C172.239 17.5279 172.347 17.0925 172.347 16.5622C172.347 16.0319 172.239 15.5937 172.021 15.2476C171.803 14.8959 171.482 14.6336 171.058 14.4605C170.634 14.2819 170.112 14.1926 169.492 14.1926H167.449V28H163.304ZM172.959 20.1627L177.229 28H172.708L168.521 20.1627H172.959ZM182.626 28H178.171L183.957 10.8517H189.475L195.261 28H190.806L186.779 15.1722H186.645L182.626 28ZM182.031 21.2512H191.342V24.3995H182.031V21.2512ZM201.252 10.8517V28H197.107V10.8517H201.252ZM218.448 10.8517V28H214.932L208.107 18.1029H207.999V28H203.854V10.8517H207.421L214.17 20.7321H214.312V10.8517H218.448ZM221.054 28V10.8517H233.011V14.2177H225.199V17.7344H232.4V21.1089H225.199V24.634H233.011V28H221.054Z" fill="white"/>
<path d="M6.98813 6.98812L6.98812 6.98813C3.12869 10.8476 3.12869 17.1049 6.98812 20.9644L17.9697 31.946C21.8291 35.8054 28.0865 35.8054 31.946 31.9459C35.8054 28.0865 35.8054 21.8291 31.946 17.9697L20.9644 6.98812C17.1049 3.12869 10.8476 3.12869 6.98813 6.98812Z" fill="white"/>
<path opacity="0.5" d="M33.9436 5.3915V15.4977L23.8374 5.3915H33.9436Z" fill="white"/>
<path d="M5.46231 33.8728V23.7665L15.5686 33.8728H5.46231Z" fill="white"/>
</svg>
