<svg width="242" height="39" viewBox="0 0 242 39" fill="none" xmlns="http://www.w3.org/2000/svg">
<path d="M43.6749 28.9242H39.516L44.918 12.9136H50.0698L55.4718 28.9242H51.3128L47.5525 16.9476H47.4274L43.6749 28.9242ZM43.1199 22.6232H51.8131V25.5626H43.1199V22.6232ZM63.1135 28.9242H57.1956V12.9136H63.1057C64.737 12.9136 66.1415 13.2342 67.3194 13.8752C68.5025 14.5111 69.4145 15.4283 70.0556 16.627C70.6966 17.8205 71.0171 19.2485 71.0171 20.9111C71.0171 22.5789 70.6966 24.0121 70.0556 25.2108C69.4197 26.4095 68.5103 27.3294 67.3272 27.9704C66.1441 28.6063 64.7396 28.9242 63.1135 28.9242ZM61.0653 25.6251H62.965C63.8614 25.6251 64.6197 25.474 65.2399 25.1717C65.8653 24.8642 66.337 24.3665 66.6549 23.6785C66.978 22.9854 67.1396 22.0629 67.1396 20.9111C67.1396 19.7593 66.978 18.842 66.6549 18.1593C66.3318 17.4713 65.8549 16.9762 65.2243 16.6739C64.5989 16.3664 63.8275 16.2127 62.9102 16.2127H61.0653V25.6251ZM79.1944 28.9242H73.2764V12.9136H79.1866C80.8178 12.9136 82.2224 13.2342 83.4003 13.8752C84.5833 14.5111 85.4954 15.4283 86.1364 16.627C86.7775 17.8205 87.098 19.2485 87.098 20.9111C87.098 22.5789 86.7775 24.0121 86.1364 25.2108C85.5006 26.4095 84.5912 27.3294 83.4081 27.9704C82.225 28.6063 80.8205 28.9242 79.1944 28.9242ZM77.1462 25.6251H79.0458C79.9423 25.6251 80.7006 25.474 81.3208 25.1717C81.9462 24.8642 82.4179 24.3665 82.7358 23.6785C83.0589 22.9854 83.2205 22.0629 83.2205 20.9111C83.2205 19.7593 83.0589 18.842 82.7358 18.1593C82.4126 17.4713 81.9358 16.9762 81.3051 16.6739C80.6797 16.3664 79.9084 16.2127 78.9911 16.2127H77.1462V25.6251ZM91.8746 28.9242H87.7156L93.1176 12.9136H98.2694L103.671 28.9242H99.5124L95.7521 16.9476H95.6271L91.8746 28.9242ZM91.3195 22.6232H100.013V25.5626H91.3195V22.6232ZM105.395 28.9242V12.9136H112.009C113.208 12.9136 114.242 13.1299 115.113 13.5625C115.988 13.9899 116.663 14.6049 117.137 15.4075C117.612 16.2049 117.849 17.1508 117.849 18.2453C117.849 19.3554 117.606 20.2987 117.122 21.0753C116.637 21.8466 115.949 22.4355 115.058 22.842C114.167 23.2434 113.111 23.444 111.892 23.444H107.709V20.3951H111.172C111.756 20.3951 112.243 20.3196 112.634 20.1684C113.03 20.0121 113.33 19.7775 113.533 19.4648C113.737 19.1469 113.838 18.7404 113.838 18.2453C113.838 17.7502 113.737 17.341 113.533 17.0179C113.33 16.6896 113.03 16.4446 112.634 16.2831C112.238 16.1163 111.751 16.0329 111.172 16.0329H109.265V28.9242H105.395ZM114.409 21.6069L118.396 28.9242H114.174L110.266 21.6069H114.409ZM119.971 28.9242V12.9136H123.841V19.6837H124.052L129.345 12.9136H133.902L128.227 20.059L134.004 28.9242H129.376L125.389 22.631L123.841 24.5854V28.9242H119.971ZM139.634 16.0563V12.9136H153.167V16.0563H148.312V28.9242H144.497V16.0563H139.634ZM155.057 28.9242V12.9136H161.67C162.869 12.9136 163.904 13.1299 164.774 13.5625C165.65 13.9899 166.325 14.6049 166.799 15.4075C167.273 16.2049 167.51 17.1508 167.51 18.2453C167.51 19.3554 167.268 20.2987 166.783 21.0753C166.298 21.8466 165.611 22.4355 164.719 22.842C163.828 23.2434 162.773 23.444 161.553 23.444H157.371V20.3951H160.834C161.418 20.3951 161.905 20.3196 162.296 20.1684C162.692 20.0121 162.992 19.7775 163.195 19.4648C163.398 19.1469 163.5 18.7404 163.5 18.2453C163.5 17.7502 163.398 17.341 163.195 17.0179C162.992 16.6896 162.692 16.4446 162.296 16.2831C161.9 16.1163 161.412 16.0329 160.834 16.0329H158.926V28.9242H155.057ZM164.07 21.6069L168.057 28.9242H163.836L159.927 21.6069H164.07ZM173.096 28.9242H168.937L174.339 12.9136H179.491L184.893 28.9242H180.734L176.973 16.9476H176.848L173.096 28.9242ZM172.541 22.6232H181.234V25.5626H172.541V22.6232ZM190.486 12.9136V28.9242H186.617V12.9136H190.486ZM206.542 12.9136V28.9242H203.258L196.887 19.6837H196.785V28.9242H192.916V12.9136H196.246L202.547 22.1385H202.68V12.9136H206.542ZM208.975 28.9242V12.9136H220.139V16.0563H212.845V19.3397H219.568V22.4903H212.845V25.7815H220.139V28.9242H208.975ZM222.562 28.9242V12.9136H229.176C230.374 12.9136 231.409 13.1299 232.279 13.5625C233.155 13.9899 233.83 14.6049 234.304 15.4075C234.778 16.2049 235.016 17.1508 235.016 18.2453C235.016 19.3554 234.773 20.2987 234.289 21.0753C233.804 21.8466 233.116 22.4355 232.225 22.842C231.333 23.2434 230.278 23.444 229.059 23.444H224.876V20.3951H228.339C228.923 20.3951 229.41 20.3196 229.801 20.1684C230.197 20.0121 230.497 19.7775 230.7 19.4648C230.903 19.1469 231.005 18.7404 231.005 18.2453C231.005 17.7502 230.903 17.341 230.7 17.0179C230.497 16.6896 230.197 16.4446 229.801 16.2831C229.405 16.1163 228.918 16.0329 228.339 16.0329H226.432V28.9242H222.562ZM231.576 21.6069L235.563 28.9242H231.341L227.432 21.6069H231.576Z" fill="white"/>
<path d="M6.98813 6.98812L6.98812 6.98813C3.12869 10.8476 3.12869 17.1049 6.98812 20.9644L17.9697 31.946C21.8291 35.8054 28.0865 35.8054 31.946 31.9459C35.8054 28.0865 35.8054 21.8291 31.946 17.9697L20.9644 6.98812C17.1049 3.12869 10.8476 3.12869 6.98813 6.98812Z" fill="white"/>
<path opacity="0.5" d="M33.9436 5.3915V15.4977L23.8374 5.3915H33.9436Z" fill="white"/>
<path d="M5.46231 33.8728V23.7665L15.5686 33.8728H5.46231Z" fill="white"/>
</svg>
