<svg width="90" height="87" viewBox="0 0 90 87" fill="none" xmlns="http://www.w3.org/2000/svg">
<path d="M80.9786 47.6013C80.9786 48.8365 80.3374 49.8333 79.5487 49.8333H63.72C62.9269 49.8333 62.2879 48.8354 62.2879 47.6013C62.2879 46.3705 62.9269 45.3681 63.72 45.3681H79.5487C80.3362 45.367 80.9775 46.3705 80.9775 47.6013" fill="#155BD5"/>
<path d="M64.1059 48.4304C64.1059 47.1951 64.746 46.1961 65.5369 46.1961H80.649C80.388 45.6966 79.9931 45.3726 79.5487 45.3726H63.72C62.9269 45.3726 62.2879 46.3761 62.2879 47.6057C62.2879 48.841 62.9269 49.8377 63.72 49.8377H64.4332C64.2117 49.402 64.0986 48.9192 64.1036 48.4304" fill="#155BD5"/>
<path d="M78.4823 31.48C79.1606 32.5127 79.1752 33.6985 78.5115 34.1249L65.2331 42.6546C64.5694 43.081 63.4837 42.5871 62.8065 41.5544C62.127 40.5194 62.1146 39.3336 62.7784 38.9072L76.0545 30.3775C76.7171 29.9511 77.8028 30.4472 78.4823 31.48" fill="#155BD5"/>
<path d="M64.7842 41.2653C64.1059 40.2325 64.0912 39.0445 64.755 38.6204L77.4349 30.472C76.9387 30.1975 76.4291 30.1379 76.0545 30.3775L62.7784 38.9073C62.1146 39.3336 62.1281 40.5194 62.8065 41.5544C63.4849 42.5871 64.5694 43.081 65.2331 42.6546L65.8316 42.2676C65.4085 42.0205 65.0497 41.6771 64.7842 41.2653" fill="#155BD5"/>
<path d="M78.4823 63.7337C79.1606 62.701 79.1752 61.5152 78.5115 61.0911L65.2331 52.5614C64.5694 52.1316 63.4837 52.6255 62.8065 53.6616C62.127 54.6944 62.1146 55.8801 62.7784 56.3065L76.0545 64.8362C76.7171 65.2626 77.8028 64.7687 78.4823 63.7337" fill="#155BD5"/>
<path d="M64.7842 53.9451C64.1059 54.9835 64.0912 56.1659 64.755 56.5934L77.4349 64.7384C76.9387 65.0129 76.4291 65.0759 76.0545 64.8329L62.7784 56.3031C62.1146 55.8768 62.1281 54.691 62.8065 53.6583C63.4849 52.6221 64.5694 52.1294 65.2331 52.558L65.8316 52.9416C65.4536 53.1554 65.079 53.4951 64.7842 53.9451" fill="#155BD5"/>
<path d="M54.8471 41.3755C55.5356 40.7523 55.4861 40.4924 55.7505 40.0086C56.1409 39.301 56.1454 38.707 55.9204 38.1828C53.3351 36.8103 51.0896 34.8089 50.157 32.0054C49.8172 30.9873 49.743 29.7441 49.8229 28.6776C49.8825 27.8598 49.4539 26.8968 48.9116 25.9686C48.7114 25.7268 48.4695 25.5074 48.2344 25.2846C48.6113 24.8459 49.0432 24.334 49.3369 23.4689C49.7812 22.2111 49.7711 18.9104 49.6564 17.521C49.4291 14.8019 46.6672 13.7286 43.8829 12.8354C43.6725 12.7701 43.4756 13.0143 43.3136 13.4283C41.4675 13.3439 39.1522 14.0223 37.9271 14.1123C36.5681 14.2068 35.2305 14.2495 33.8974 14.2923C28.179 16.4106 22.7498 16.0585 17.8897 21.0006C15.3124 23.623 13.05 26.5143 10.5649 29.2064C11.5279 29.1715 12.4864 29.1513 13.4888 29.2559C14.0479 29.3155 13.8083 31.3169 13.653 31.6364C12.5865 33.8256 10.8067 35.2881 9 36.7945C14.175 39.7938 16.3451 45.3659 17.9415 51.0651C18.9176 51.6193 19.8546 52.2395 20.7461 52.9214C21.258 58.0289 21.7744 64.7429 21.51 68.3395C21.4605 68.8086 21.4031 69.2485 21.3255 69.613C21.3053 69.7221 21.2513 69.9078 21.1905 70.1193C20.916 70.7054 20.2669 71.8079 19.8135 72.7934H47.664C47.1881 71.9924 46.5941 71.1441 46.3601 70.6604C46.3466 70.5861 46.3354 70.5063 46.3253 70.4534C45.8955 68.6748 45.5636 64.8171 45.4545 63.0306C45.4376 63.0205 45.3994 63.0059 45.3803 62.998L45.378 62.9856C48.2614 64.024 49.0399 64.4031 51.8501 64.6619C54.0101 64.8621 54.2273 62.6661 54.279 62.3894C54.6829 60.289 54.18 58.6623 54.369 56.8308C54.4792 55.7305 55.5919 54.3085 55.1948 53.3579C54.9281 52.72 54.5085 52.1181 53.8898 51.5613C53.5601 51.2665 51.3495 51.5016 50.949 51.217C49.4842 50.1888 50.2684 50.2686 51.2258 49.1718C52.983 47.761 53.8605 47.4348 54.369 46.1826C54.6334 45.5245 53.586 45.034 53.2192 44.2544C52.9774 43.738 53.397 42.9145 53.3824 42.4746C53.6276 42.2508 54.5974 41.6073 54.8471 41.3778" fill="#155BD5"/>
</svg>
