<svg width="90" height="87" viewBox="0 0 90 87" fill="none" xmlns="http://www.w3.org/2000/svg">
<path d="M74.75 77H70.5C70.5 74.6536 70.2012 72.3958 69.6035 70.2266C69.0059 68.0573 68.1426 66.0319 67.0137 64.1504C65.8848 62.2689 64.5566 60.5423 63.0293 58.9707C61.502 57.3991 59.7865 56.071 57.8828 54.9863C55.9792 53.9017 53.9427 53.0495 51.7734 52.4297C49.6042 51.8099 47.3464 51.5 45 51.5C42.6536 51.5 40.3958 51.7988 38.2266 52.3965C36.0573 52.9941 34.0319 53.8574 32.1504 54.9863C30.2689 56.1152 28.5423 57.4434 26.9707 58.9707C25.3991 60.498 24.071 62.2135 22.9863 64.1172C21.9017 66.0208 21.0495 68.0573 20.4297 70.2266C19.8099 72.3958 19.5 74.6536 19.5 77H15.25C15.25 73.7904 15.7148 70.7357 16.6445 67.8359C17.5742 64.9362 18.9134 62.2799 20.6621 59.8672C22.4108 57.4544 24.4805 55.3184 26.8711 53.459C29.2617 51.5996 31.9622 50.1055 34.9727 48.9766C32.2279 47.4935 29.9036 45.5013 28 43H25.875C24.9896 43 24.1595 42.834 23.3848 42.502C22.61 42.1699 21.9349 41.7161 21.3594 41.1406C20.7839 40.5651 20.3301 39.89 19.998 39.1152C19.666 38.3405 19.5 37.5104 19.5 36.625V28.125C19.5 27.2839 19.6549 26.487 19.9648 25.7344C20.2747 24.9818 20.6953 24.3177 21.2266 23.7422C21.7578 23.1667 22.3997 22.7018 23.1523 22.3477C23.9049 21.9935 24.6908 21.7943 25.5098 21.75C26.373 19.8021 27.4688 18.0423 28.7969 16.4707C30.125 14.8991 31.6413 13.5599 33.3457 12.4531C35.0501 11.3464 36.8874 10.4941 38.8574 9.89648C40.8275 9.29883 42.875 9 45 9C47.125 9 49.1725 9.29883 51.1426 9.89648C53.1126 10.4941 54.9388 11.3464 56.6211 12.4531C58.3034 13.5599 59.8197 14.8991 61.1699 16.4707C62.5202 18.0423 63.627 19.8021 64.4902 21.75C65.3314 21.7943 66.1172 21.9935 66.8477 22.3477C67.5781 22.7018 68.209 23.1667 68.7402 23.7422C69.2715 24.3177 69.7031 24.9818 70.0352 25.7344C70.3672 26.487 70.5221 27.2839 70.5 28.125V36.625C70.5 37.5104 70.334 38.3405 70.002 39.1152C69.6699 39.89 69.2161 40.5651 68.6406 41.1406C68.0651 41.7161 67.39 42.1699 66.6152 42.502C65.8405 42.834 65.0104 43 64.125 43C63.4609 43 62.8301 42.9004 62.2324 42.7012C61.2806 44.0072 60.207 45.1914 59.0117 46.2539C57.8164 47.3164 56.4883 48.224 55.0273 48.9766C57.9935 50.1055 60.6829 51.5885 63.0957 53.4258C65.5085 55.263 67.5892 57.3991 69.3379 59.834C71.0866 62.2689 72.4147 64.9362 73.3223 67.8359C74.2298 70.7357 74.7057 73.7904 74.75 77ZM66.25 28.125C66.25 27.5495 66.0397 27.0514 65.6191 26.6309C65.1986 26.2103 64.7005 26 64.125 26C63.5495 26 63.0514 26.2103 62.6309 26.6309C62.2103 27.0514 62 27.5495 62 28.125V36.625C62 37.2005 62.2103 37.6986 62.6309 38.1191C63.0514 38.5397 63.5495 38.75 64.125 38.75C64.7005 38.75 65.1986 38.5397 65.6191 38.1191C66.0397 37.6986 66.25 37.2005 66.25 36.625V28.125ZM23.75 36.625C23.75 37.2005 23.9603 37.6986 24.3809 38.1191C24.8014 38.5397 25.2995 38.75 25.875 38.75H28V28.125C28 27.5495 27.7897 27.0514 27.3691 26.6309C26.9486 26.2103 26.4505 26 25.875 26C25.2995 26 24.8014 26.2103 24.3809 26.6309C23.9603 27.0514 23.75 27.5495 23.75 28.125V36.625ZM33.7441 43C35.2936 44.3724 37.0312 45.4238 38.957 46.1543C40.8828 46.8848 42.8971 47.25 45 47.25C46.3724 47.25 47.7116 47.0951 49.0176 46.7852C50.3236 46.4753 51.5632 46.0104 52.7363 45.3906C53.9095 44.7708 55.0163 44.0293 56.0566 43.166C57.097 42.3027 58.0156 41.2956 58.8125 40.1445C58.4583 39.6354 58.1927 39.082 58.0156 38.4844C57.8385 37.8867 57.75 37.2669 57.75 36.625V28.125C57.75 27.1068 57.9714 26.1439 58.4141 25.2363C58.8568 24.3288 59.5098 23.5762 60.373 22.9785C59.6647 21.4954 58.7793 20.1562 57.7168 18.9609C56.6543 17.7656 55.4479 16.7474 54.0977 15.9062C52.7474 15.0651 51.3086 14.4121 49.7812 13.9473C48.2539 13.4824 46.6602 13.25 45 13.25C43.362 13.25 41.7682 13.4714 40.2188 13.9141C38.6693 14.3568 37.2305 15.0098 35.9023 15.873C34.5742 16.7363 33.3789 17.7656 32.3164 18.9609C31.2539 20.1562 30.3574 21.4954 29.627 22.9785C30.4681 23.5762 31.11 24.3288 31.5527 25.2363C31.9954 26.1439 32.2279 27.1068 32.25 28.125V38.75H36.5C36.5 38.1523 36.6107 37.599 36.832 37.0898C37.0534 36.5807 37.3522 36.138 37.7285 35.7617C38.1048 35.3854 38.5586 35.0755 39.0898 34.832C39.6211 34.5885 40.1745 34.4779 40.75 34.5C41.3477 34.5 41.901 34.6107 42.4102 34.832C42.9193 35.0534 43.362 35.3522 43.7383 35.7285C44.1146 36.1048 44.4245 36.5586 44.668 37.0898C44.9115 37.6211 45.0221 38.1745 45 38.75C45 39.3477 44.8893 39.901 44.668 40.4102C44.4466 40.9193 44.1478 41.362 43.7715 41.7383C43.3952 42.1146 42.9414 42.4245 42.4102 42.668C41.8789 42.9115 41.3255 43.0221 40.75 43H33.7441Z" fill="#155BD5"/>
</svg>
