<svg width="90" height="87" viewBox="0 0 90 87" fill="none" xmlns="http://www.w3.org/2000/svg">
<path d="M74.75 68.5C74.75 68.5 79 68.5 79 64.25C79 60 74.75 47.25 57.75 47.25C40.75 47.25 36.5 60 36.5 64.25C36.5 68.5 40.75 68.5 40.75 68.5H74.75ZM40.8435 64.25C40.8121 64.2457 40.7809 64.24 40.75 64.233C40.7543 63.111 41.4598 59.8555 43.98 56.923C46.326 54.1733 50.4485 51.5 57.75 51.5C65.0473 51.5 69.1697 54.1775 71.52 56.923C74.0402 59.8555 74.7415 63.1153 74.75 64.233L74.716 64.2415C74.6962 64.2448 74.6764 64.2477 74.6565 64.25H40.8435V64.25ZM57.75 38.75C60.0043 38.75 62.1663 37.8545 63.7604 36.2604C65.3545 34.6663 66.25 32.5043 66.25 30.25C66.25 27.9957 65.3545 25.8337 63.7604 24.2396C62.1663 22.6455 60.0043 21.75 57.75 21.75C55.4957 21.75 53.3337 22.6455 51.7396 24.2396C50.1455 25.8337 49.25 27.9957 49.25 30.25C49.25 32.5043 50.1455 34.6663 51.7396 36.2604C53.3337 37.8545 55.4957 38.75 57.75 38.75ZM70.5 30.25C70.5 31.9244 70.1702 33.5823 69.5295 35.1292C68.8887 36.6761 67.9496 38.0817 66.7656 39.2656C65.5817 40.4496 64.1761 41.3887 62.6292 42.0295C61.0823 42.6702 59.4244 43 57.75 43C56.0756 43 54.4177 42.6702 52.8708 42.0295C51.3239 41.3887 49.9183 40.4496 48.7344 39.2656C47.5504 38.0817 46.6113 36.6761 45.9705 35.1292C45.3298 33.5823 45 31.9244 45 30.25C45 26.8685 46.3433 23.6255 48.7344 21.2344C51.1255 18.8433 54.3685 17.5 57.75 17.5C61.1315 17.5 64.3745 18.8433 66.7656 21.2344C69.1567 23.6255 70.5 26.8685 70.5 30.25V30.25ZM40.478 48.44C38.7779 47.9047 37.0254 47.5527 35.2505 47.3902C34.2532 47.2954 33.2518 47.2486 32.25 47.25C15.25 47.25 11 60 11 64.25C11 67.0847 12.4153 68.5 15.25 68.5H33.168C32.538 67.1732 32.2238 65.7185 32.25 64.25C32.25 59.9575 33.8523 55.5715 36.8825 51.908C37.9153 50.6585 39.118 49.4897 40.478 48.44ZM31.91 51.5C29.3947 55.2794 28.0359 59.7102 28 64.25H15.25C15.25 63.145 15.947 59.8725 18.48 56.923C20.7963 54.22 24.821 51.585 31.91 51.5043V51.5ZM17.375 32.375C17.375 28.9935 18.7183 25.7505 21.1094 23.3594C23.5005 20.9683 26.7435 19.625 30.125 19.625C33.5065 19.625 36.7495 20.9683 39.1406 23.3594C41.5317 25.7505 42.875 28.9935 42.875 32.375C42.875 35.7565 41.5317 38.9995 39.1406 41.3906C36.7495 43.7817 33.5065 45.125 30.125 45.125C26.7435 45.125 23.5005 43.7817 21.1094 41.3906C18.7183 38.9995 17.375 35.7565 17.375 32.375V32.375ZM30.125 23.875C27.8707 23.875 25.7087 24.7705 24.1146 26.3646C22.5205 27.9587 21.625 30.1207 21.625 32.375C21.625 34.6293 22.5205 36.7913 24.1146 38.3854C25.7087 39.9795 27.8707 40.875 30.125 40.875C32.3793 40.875 34.5413 39.9795 36.1354 38.3854C37.7295 36.7913 38.625 34.6293 38.625 32.375C38.625 30.1207 37.7295 27.9587 36.1354 26.3646C34.5413 24.7705 32.3793 23.875 30.125 23.875Z" fill="#155BD5"/>
</svg>
